REM MD5 3c50db4167cc1f2cde62313f1b07a4e7
FILE "Next Demo 9 (Italy) (En,It).bin" BINARY
  TRACK 01 MODE2/2352
    INDEX 01 00:00:00
  TRACK 02 AUDIO
    INDEX 00 45:53:63
    INDEX 01 45:55:63
  TRACK 03 AUDIO
    INDEX 00 47:16:04
    INDEX 01 47:18:04
REM LEADOUT 50:19:04
